<svg xmlns="http://www.w3.org/2000/svg" width="110" height="110"><path data-name="パス 189" d="M102.3 62.5l-7.8-7.8a3.168 3.168 0 00-2.3-.9 3.523 3.523 0 00-2.3.9l-5.7 5.7L72 72.6 60.3 84.3l-2.5 2.5a7.831 7.831 0 00-1.6 2 13.893 13.893 0 00-.6 1.9c-.3 1.5-.7 3-1 4.4-.5 2.1-1 4.3-1.5 6.4l-1.2 1.2a1.45 1.45 0 000 2.1 1.712 1.712 0 002.2 0l1-1c2-.5 3.9-.9 5.9-1.4 1.5-.3 2.9-.7 4.4-1a13.087 13.087 0 002.8-.9 8.67 8.67 0 002.7-2.4l2.2-2.2L79 90l13.7-13.7 9-9 .5-.5a2.784 2.784 0 00.1-4.3zM57.1 99.8c-.1-.1-.2-.2-.3-.2l1.7-7.5 6.5 6.5-7.6 1.7c0-.2-.1-.3-.3-.5zm10.8-2.6l-8.1-8.1 24.6-24.6 8.1 8.1zm32.3-32.3l-5.5 5.5-8.1-8.1 5.5-5.5.1-.1c.1 0 .1 0 .1.1l7.8 7.8.1.1z" fill="#0097c3"/><path data-name="長方形 588" fill="none" d="M0 0h110v110H0z"/><g data-name="グループ 128" fill="#0097c3"><path data-name="パス 190" d="M71 33.2H21.1a1.5 1.5 0 110-3H71a1.538 1.538 0 011.5 1.5 1.473 1.473 0 01-1.5 1.5z"/><path data-name="パス 191" d="M71 47.2H21.1a1.5 1.5 0 110-3H71a1.5 1.5 0 010 3z"/><path data-name="パス 192" d="M61.6 61.2H21.1a1.5 1.5 0 110-3h40.5a1.538 1.538 0 011.5 1.5 1.473 1.473 0 01-1.5 1.5z"/><path data-name="パス 193" d="M49.9 75.2H21.1a1.5 1.5 0 110-3h28.7a1.538 1.538 0 011.5 1.5 1.391 1.391 0 01-1.4 1.5z"/><path data-name="パス 194" d="M40.6 89.2H21.1a1.5 1.5 0 110-3h19.4a1.538 1.538 0 011.5 1.5 1.391 1.391 0 01-1.4 1.5z"/></g><path data-name="パス 195" d="M76.6 13.6H61v-.8a3.329 3.329 0 00-3.3-3.3H52a6.15 6.15 0 00-12 0h-5.7a3.329 3.329 0 00-3.3 3.3v.8H15.5a8.525 8.525 0 00-8.8 8.3v74.9a8.525 8.525 0 008.8 8.3h25.1a1.5 1.5 0 100-3H15.5a5.587 5.587 0 01-5.8-5.3V21.9a5.587 5.587 0 015.8-5.3h15.6v2a3.329 3.329 0 003.3 3.3h23.2a3.329 3.329 0 003.3-3.3v-2h15.6a5.587 5.587 0 015.8 5.3v28.3a1.5 1.5 0 003 0V21.9c.1-4.6-3.8-8.3-8.7-8.3zm-18.6 5a.265.265 0 01-.3.3H34.4a.265.265 0 01-.3-.3v-5.8a.265.265 0 01.3-.3H43v-1.7a3.1 3.1 0 116.2 0v.1l-.1 1.6h8.6a.265.265 0 01.3.3v5.8z" fill="#0097c3"/></svg>