<svg xmlns="http://www.w3.org/2000/svg" width="110" height="110"><path data-name="長方形 630" fill="none" d="M0 0h110v110H0z"/><g data-name="グループ 209" fill="#0097c3"><g data-name="グループ 207"><path data-name="パス 243" d="M39.6 72.2a5.9 5.9 0 115.9-5.9 5.848 5.848 0 01-5.9 5.9zm0-9.4a3.5 3.5 0 103.5 3.5 3.543 3.543 0 00-3.5-3.5z"/><path data-name="パス 244" d="M70.4 72.2a5.9 5.9 0 115.9-5.9 5.911 5.911 0 01-5.9 5.9zm0-9.4a3.5 3.5 0 103.5 3.5 3.543 3.543 0 00-3.5-3.5z"/><g data-name="グループ 206"><path data-name="パス 245" d="M49.2 64.7a1.2 1.2 0 110-2.4h11.6a1.2 1.2 0 010 2.4z"/><path data-name="パス 246" d="M49.2 70.2a1.2 1.2 0 110-2.4h11.6a1.2 1.2 0 110 2.4z"/></g></g><path data-name="パス 247" d="M34.6 57.1a1.155 1.155 0 01-1.2-1.2V32.7a1.155 1.155 0 011.2-1.2h40.8a1.155 1.155 0 011.2 1.2v23.1a1.155 1.155 0 01-1.2 1.2H34.6zm39.6-2.4V33.9h-18v20.7h18zm-20.4 0V33.9h-18v20.7h18z"/><g data-name="グループ 208"><path data-name="パス 248" d="M48.9 28.4a1.2 1.2 0 110-2.4h12.3a1.2 1.2 0 010 2.4z"/><path data-name="パス 249" d="M44 28.7a1.5 1.5 0 111.5-1.5 1.538 1.538 0 01-1.5 1.5z"/><path data-name="パス 250" d="M66 28.7a1.5 1.5 0 111.5-1.5 1.473 1.473 0 01-1.5 1.5z"/></g><path data-name="パス 251" d="M72.8 89.6a1.389 1.389 0 01-1-.5l-4.1-5.5H42.3l-4.1 5.5a1.231 1.231 0 01-1 .5h-8.9a1.23 1.23 0 01-1.1-.7 1.258 1.258 0 01.2-1.3l8.7-9.4c-3.2-.2-5-.8-6.3-2.1-2.7-2.7-2.7-7.9-2.5-20.3v-4.3c.1-5.2 0-9.5 0-12.9 0-5.1-.1-8.2.2-9.8v-.1c1.6-5.6 10.8-8.4 27.5-8.4 16.6 0 25.9 2.8 27.5 8.4v.1c.3 1.6.3 4.7.2 9.8 0 3.4-.1 7.6 0 12.9v4.3c.1 12.4.2 17.6-2.5 20.3-1.3 1.3-3.2 1.9-6.3 2.1l8.7 9.4a1.258 1.258 0 01.2 1.3 1.23 1.23 0 01-1.1.7zm6.2-2.4l-8.3-9h-4l6.7 9zm-42.4 0l6.7-9h-4l-8.3 9zm29.3-6l-2.3-3.1h-3.3c-1.8 0-3.5 0-5.3.1h-.1c-1.8 0-3.5-.1-5.3-.1h-3.3L44 81.2zm5.4-5.3h.1c3.6 0 6-.2 7.2-1.5 2-2 2-7.5 1.8-18.5v-4.3c-.1-5.3 0-9.5 0-12.9 0-4.7.1-7.9-.2-9.3-.7-2.5-5-6.6-25.2-6.6-20.1 0-24.4 4.2-25.1 6.6-.3 1.4-.2 4.5-.2 9.3 0 3.4.1 7.7 0 12.9v4.3c-.1 11-.2 16.5 1.8 18.6 1.2 1.2 3.6 1.5 7.2 1.5h1c1 0 2.1 0 3.2-.1 2 0 4.2-.1 6.8-.1 1.8 0 3.6 0 5.3.1 1.8 0 3.5-.1 5.3-.1 2.5 0 4.8 0 6.7.1 1.2 0 2.3 0 3.3.1h1z"/></g><g data-name="グループ 210" fill="#c9c9c9"><path data-name="パス 252" d="M55 9.6a1.367 1.367 0 01-1.4-1.4V1.4a1.4 1.4 0 012.8 0v6.8A1.43 1.43 0 0155 9.6z"/><path data-name="パス 253" d="M55 110a1.367 1.367 0 01-1.4-1.4v-6.8a1.4 1.4 0 112.8 0v6.8A1.367 1.367 0 0155 110z"/><path data-name="パス 254" d="M108.6 56.4h-8.9a1.4 1.4 0 110-2.8h8.9a1.4 1.4 0 010 2.8z"/><path data-name="パス 255" d="M10.3 56.4H1.4a1.4 1.4 0 010-2.8h8.9a1.4 1.4 0 010 2.8z"/></g><g data-name="グループ 211" fill="#c9c9c9"><path data-name="パス 256" d="M14.4 33a1.854 1.854 0 01-.7-.2l-5.9-3.4a1.4 1.4 0 01-.4-1.9 1.342 1.342 0 011.9-.5l5.9 3.4a1.342 1.342 0 01.5 1.9 1.709 1.709 0 01-1.3.7z"/><path data-name="パス 257" d="M101.4 83.2a1.854 1.854 0 01-.7-.2l-5.9-3.4a1.389 1.389 0 011.4-2.4l5.9 3.4a1.342 1.342 0 01.5 1.9 1.387 1.387 0 01-1.2.7z"/><path data-name="パス 258" d="M77.3 17.7a1.854 1.854 0 01-.7-.2 1.342 1.342 0 01-.5-1.9l4.5-7.7A1.389 1.389 0 1183 9.3L78.6 17a1.709 1.709 0 01-1.3.7z"/><path data-name="パス 259" d="M28.2 102.8a1.854 1.854 0 01-.7-.2 1.342 1.342 0 01-.5-1.9l4.5-7.7a1.389 1.389 0 112.4 1.4l-4.5 7.7a1.306 1.306 0 01-1.2.7z"/></g><g data-name="グループ 212" fill="#c9c9c9"><path data-name="パス 260" d="M31.6 15.8a1.387 1.387 0 01-1.2-.7L27 9.3a1.389 1.389 0 112.4-1.4l3.4 5.9a1.342 1.342 0 01-.5 1.9 1.7 1.7 0 01-.7.1z"/><path data-name="パス 261" d="M81.8 102.8a1.387 1.387 0 01-1.2-.7l-3.4-5.9a1.389 1.389 0 112.4-1.4l3.4 5.9a1.342 1.342 0 01-.5 1.9.952.952 0 01-.7.2z"/><path data-name="パス 262" d="M93.7 34a1.387 1.387 0 01-1.2-.7 1.342 1.342 0 01.5-1.9l7.7-4.5a1.389 1.389 0 111.4 2.4l-7.7 4.5a.952.952 0 01-.7.2z"/><path data-name="パス 263" d="M8.6 83.2a1.387 1.387 0 01-1.2-.7 1.342 1.342 0 01.5-1.9l7.7-4.5a1.389 1.389 0 011.4 2.4L9.3 83a1.854 1.854 0 01-.7.2z"/></g></svg>