<svg xmlns="http://www.w3.org/2000/svg" width="110" height="110"><g data-name="グループ 91"><g data-name="グループ 89"><path data-name="パス 163" d="M90.814 96.293h-71.7a10 10 0 01-8.745-5.049 10 10 0 010-10.1l35.85-62.093a10 10 0 018.745-5.049 10 10 0 018.745 5.049l35.85 62.093a10 10 0 010 10.1 10 10 0 01-8.745 5.049zm-35.85-79.281a7.018 7.018 0 00-6.14 3.545L12.974 82.65a7.016 7.016 0 000 7.09 7.017 7.017 0 006.14 3.545h71.7a7.017 7.017 0 006.14-3.545 7.016 7.016 0 000-7.09l-35.85-62.093a7.018 7.018 0 00-6.14-3.549zm-7.442 2.793z" fill="#c9c9c9"/></g><g data-name="グループ 90" fill="#efa537"><path data-name="パス 150" d="M55 86.215a6.05 6.05 0 01-6.044-6.044A6.05 6.05 0 0155 74.127a6.05 6.05 0 016.044 6.044A6.05 6.05 0 0155 86.215zm0-9.081a3.041 3.041 0 00-3.037 3.037A3.04 3.04 0 0055 83.207a3.04 3.04 0 003.037-3.036A3.041 3.041 0 0055 77.134z"/><path data-name="パス 151" d="M55.09 70.983h-.016a4.386 4.386 0 01-4.338-4.558c-.038-.861-1.6-16.511-2.108-21.654l-.234-2.361a6.478 6.478 0 012.687-6.552 7.111 7.111 0 017.415-.359c2.235 1.283 3.391 3.76 3.171 6.8a1.388 1.388 0 01-.019.158c-.112.9-1.188 12.3-1.77 18.465l-.546 5.763-.007.064a4.205 4.205 0 01-4.235 4.234zm.031-33.352a4.174 4.174 0 00-2.34.708 3.469 3.469 0 00-1.407 3.66c0 .03.008.061.011.091.008.085.1.981.236 2.383 1.495 15.012 2.109 21.352 2.122 21.882.028 1.191.711 1.618 1.342 1.62h.005c.285 0 1.191-.1 1.231-1.373a1.44 1.44 0 01.011-.149c.032-.3.273-2.863.552-5.815.341-3.618.78-8.264 1.137-12.007.179-1.873.337-3.519.453-4.7.058-.592.106-1.067.14-1.4.014-.143.031-.3.058-.457.136-1.894-.441-3.267-1.669-3.972a3.776 3.776 0 00-1.882-.471zm5.047 4.557z"/></g></g><path data-name="長方形 395" fill="none" d="M0 0h110v110H0z"/></svg>