<svg xmlns="http://www.w3.org/2000/svg" width="110" height="110"><path data-name="長方形 397" fill="none" d="M0 0h110v110H0z"/><g data-name="グループ 95"><path data-name="パス 162" d="M84.68 83.978q.291-.3.576-.6l.122-.131q.3-.324.6-.654l.076-.086q1.357-1.527 2.55-3.165l.108-.149c.152-.211.3-.423.451-.637l.153-.222c.13-.19.258-.382.385-.574.059-.088.118-.176.175-.265q.174-.268.343-.54c.062-.1.126-.2.187-.3.092-.15.182-.3.272-.452q.269-.449.524-.9c.035-.061.07-.122.1-.183a34.07 34.07 0 00.422-.776q.189-.355.37-.714l.012-.022a41.589 41.589 0 004.446-19.549 41.89 41.89 0 00-1.628-10.882 1.5 1.5 0 00-1.861-1.026 1.5 1.5 0 00-1.028 1.862 38.945 38.945 0 011.511 10.1 39.564 39.564 0 01-.391 6.263 38.423 38.423 0 01-3.817 12.045l-.014.029c-.1.184-.192.367-.289.55l-.13.243q-.126.232-.255.462c-.064.115-.129.229-.194.342l-.224.387q-.146.246-.3.492l-.146.241q-.238.383-.484.761l-.04.059q-.232.355-.473.706l-.087.124q-.227.327-.46.65l-.078.108c-.172.235-.346.47-.524.7l-.022.029q-.87 1.139-1.832 2.219l-.045.05q-.283.318-.575.631l-.106.113a40.498 40.498 0 01-1.348 1.37 39.448 39.448 0 01-3.468 2.981l-.023.015c-.389.3-.791.589-1.193.872l-.029.023a38.709 38.709 0 01-4.746 2.85 1.231 1.231 0 00-.12.052 38.3 38.3 0 01-10.139 3.425l-.162.029q-.426.078-.855.147l-.209.032c-.282.044-.565.084-.849.122l-.182.024q-.483.061-.971.111l-.051.005q-1.073.108-2.158.156h-.027c-.327.015-.654.024-.982.031-.216 0-.433.007-.649.008h-.239c-.217 0-.433 0-.65-.008a39.845 39.845 0 01-.981-.031h-.028q-1.084-.048-2.158-.156l-.051-.005c-.325-.033-.648-.07-.971-.111l-.181-.024a39.405 39.405 0 01-.849-.122l-.21-.032q-.429-.069-.855-.147l-.161-.029a38.308 38.308 0 01-10.14-3.425 1.122 1.122 0 00-.119-.052 38.905 38.905 0 01-9.46-6.741 38.538 38.538 0 01-11.832-27.223A38.821 38.821 0 0154.102 16.01a38.645 38.645 0 0126.452 9.805 1.5 1.5 0 002.123-.123 1.5 1.5 0 00-.122-2.124 41.658 41.658 0 00-28.5-10.566 41.833 41.833 0 00-41.044 42.515 41.525 41.525 0 0012.752 29.337 41.478 41.478 0 0021.27 11.015l.112.02c.327.06.655.117.983.169l.183.029q.477.073.957.136l.163.022c.358.045.717.087 1.077.123h.031q1.158.117 2.33.169h.034c.35.015.7.026 1.052.033h.1c.2 0 .4.005.6.005h.252c.2 0 .4 0 .6-.005h.1q.526-.011 1.051-.033h.034q1.172-.053 2.33-.169h.031c.36-.036.719-.078 1.077-.123l.164-.022q.479-.063.956-.136l.183-.029c.329-.052.656-.109.983-.169l.113-.02a41.485 41.485 0 0021.27-11.015q.387-.375.763-.758l.014-.013c.038-.034.07-.07.104-.105z" fill="#c9c9c9"/></g><path data-name="パス 159" d="M89.059 31.541a1.584 1.584 0 011.2.547l.668.768a1.593 1.593 0 01-.081 2.174L55.038 70.956l-22.462-16.1a1.989 1.989 0 01-.458-2.774l1.967-2.747a1.987 1.987 0 012.773-.458l17.74 12.717 33.419-29.662a1.579 1.579 0 011.042-.39m0-3.008a4.6 4.6 0 00-3.016 1.128l-.023.02L54.4 57.749 38.61 46.431a4.994 4.994 0 00-6.97 1.152l-1.967 2.747a5 5 0 001.151 6.969l22.461 16.1a3.008 3.008 0 003.883-.322l35.8-35.921a4.608 4.608 0 00.226-6.274l-.668-.769a4.591 4.591 0 00-3.47-1.582z" fill="#1b93bf"/></svg>