<svg xmlns="http://www.w3.org/2000/svg" width="16" height="16"><path data-name="長方形 379" fill="none" d="M0 0h16v16H0z"/><g data-name="グループ 61"><path data-name="パス 84" d="M3.235 12.591a.265.265 0 01-.265-.265V8.751a.265.265 0 01.265-.265h5.224a.266.266 0 01.266.265v3.575a.266.266 0 01-.266.265zm4.958-.531V9.017H3.5v3.043z"/><path data-name="パス 85" d="M1.69 14.79a.266.266 0 01-.266-.265V7.6a2.174 2.174 0 01-1.17-1.911.185.185 0 010-.047.257.257 0 01.034-.121l2.357-4.176a.267.267 0 01.232-.135h10.262a.266.266 0 01.232.136l2.342 4.192a.26.26 0 01.034.13A2.169 2.169 0 0114.576 7.6v6.925a.266.266 0 01-.266.265zm12.355-.531V7.79a2.067 2.067 0 01-.435.046 2.126 2.126 0 01-1.87-1.118 2.126 2.126 0 01-1.87 1.118A2.128 2.128 0 018 6.718a2.125 2.125 0 01-1.869 1.118 2.126 2.126 0 01-1.87-1.118 2.126 2.126 0 01-1.87 1.118 2.084 2.084 0 01-.436-.046v6.469h7.8V8.751a.266.266 0 01.266-.265h2.741a.265.265 0 01.265.265v5.508zm-1.546-.017v-.476h-2.21v.476zm0-1.008V9.017h-2.21v4.217zm-.475-7.306a1.624 1.624 0 001.586 1.377 1.575 1.575 0 00.457-.068 1.588 1.588 0 00.459-.228 1.654 1.654 0 00.669-1.081h-.651a.265.265 0 01-.248-.264.266.266 0 01.246-.265h.484l-2.043-3.656H3.032L.968 5.399h.488a.267.267 0 01.261.266.267.267 0 01-.261.265h-.65a1.661 1.661 0 00.667 1.081 1.593 1.593 0 00.46.228 1.581 1.581 0 00.458.068A1.622 1.622 0 003.976 5.93H2.568a.266.266 0 01-.266-.265.267.267 0 01.153-.241h11.103a.266.266 0 01.152.241.265.265 0 01-.265.265zm-3.739 0A1.622 1.622 0 009.87 7.305a1.622 1.622 0 001.585-1.377zm-3.74 0a1.624 1.624 0 001.586 1.377 1.623 1.623 0 001.585-1.377z"/></g></svg>