<svg xmlns="http://www.w3.org/2000/svg" width="16" height="16"><g data-name="グループ 123"><path data-name="パス 185" d="M12.5 14.6H1.7a.319.319 0 01-.3-.3V3.6a.319.319 0 01.3-.3H9a.319.319 0 01.3.3.319.319 0 01-.3.3H2v10.3h10.2v-7a.319.319 0 01.3-.3.265.265 0 01.3.3v7.2c-.1.1-.2.2-.3.2z"/></g><path data-name="パス 186" d="M14.6 1.6v-.1H9.8a.319.319 0 00-.3.3.265.265 0 00.3.3h3.8L6.6 9a.3.3 0 000 .4c.1.1.1.1.2.1s.1 0 .2-.1l7-7.1v3.8a.319.319 0 00.3.3.265.265 0 00.3-.3V1.6z"/><path data-name="長方形 585" fill="none" d="M0 0h16v16H0z"/></svg>