<svg xmlns="http://www.w3.org/2000/svg" width="16" height="16"><path data-name="長方形 583" fill="none" d="M0 0h16v16H0z"/><g data-name="グループ 122"><path data-name="パス 176" d="M12.7 10.4h-.1a.215.215 0 01-.2-.2v-1h-4q-.3-.15-.3-.3V7.1a.319.319 0 01.3-.3h4v-1a.215.215 0 01.2-.2h.3l2.5 2.1c.1.1.1.1.1.2s0 .2-.1.2l-2.5 2.1c-.1.2-.2.2-.2.2zM8.6 8.6h4a.319.319 0 01.3.3v.7L14.8 8 13 6.5v.7a.319.319 0 01-.3.3h-4v1.1z"/><g data-name="グループ 121"><path data-name="パス 177" d="M10.2 12.4H5.8v.5h4.7a.319.319 0 00.3-.3V9.5h-.5v2.9z"/><path data-name="パス 178" d="M10.4.5H.8a.319.319 0 00-.3.3v11.9a.319.319 0 00.3.3h.5l-.5-.3V.7l.5.3h8.9v5.3h.5V.7c0-.1-.1-.2-.3-.2z"/></g><path data-name="パス 179" d="M5.8 15.5h-.1L.8 12.9c-.1 0-.1-.1-.1-.2V.7C.7.6.7.5.8.5s.2-.1.3 0L6 3.1v12.2c0 .1 0 .2-.1.2zm-4.7-3l4.4 2.3V3.5L1.1 1.2z"/></g></svg>