<svg xmlns="http://www.w3.org/2000/svg" width="16" height="16"><path data-name="長方形 591" fill="none" d="M0 0h16v16H0z"/><g data-name="グループ 151"><path data-name="パス 204" d="M15.4 5V3.9a1.216 1.216 0 00-1.2-1.2H1.8A1.216 1.216 0 00.6 3.9v8.2a1.216 1.216 0 001.2 1.2h12.5a1.216 1.216 0 001.2-1.2V5zm-.5 1.4H1.1V5.3h13.7v1.1zM1.8 3.3h12.5a.576.576 0 01.6.6v.8H1.1v-.8a.669.669 0 01.7-.6zm12.4 9.4H1.8a.576.576 0 01-.6-.6V7H15v5.1a.871.871 0 01-.8.6z"/><path data-name="パス 205" d="M6.9 8.9H2.1c-.1 0-.2.1-.2.3s.1.2.2.2h4.8a.319.319 0 00.3-.3c0-.2-.1-.2-.3-.2z"/><path data-name="パス 206" d="M6.9 10.3H2.1a.319.319 0 00-.3.3.265.265 0 00.3.3h4.8a.319.319 0 00.3-.3.265.265 0 00-.3-.3z"/><path data-name="パス 207" d="M13.8 8.8h-1.6a.319.319 0 00-.3.3v1.6a.319.319 0 00.3.3h1.6a.319.319 0 00.3-.3V9.1a.265.265 0 00-.3-.3zm-.2 1.6h-1.1V9.3h1.1z"/></g></svg>