<svg xmlns="http://www.w3.org/2000/svg" width="16" height="16"><path data-name="パス 180" d="M13.9 3.8v-.1L11.1.9H3a.9.9 0 00-.9.9v12.7a.9.9 0 00.9.9h10a.9.9 0 00.9-.9V3.8zm-.9-.3h-1.5a.43.43 0 01-.4-.4V1.7zm0 11.2H3a.43.43 0 01-.4-.4V1.7a.43.43 0 01.4-.4h7.6v1.9a.882.882 0 00.9.8h1.9v10.3a.366.366 0 01-.4.4z"/><path data-name="パス 181" d="M11.6 6H6.1a.265.265 0 01-.3-.3.265.265 0 01.3-.3h5.5a.319.319 0 01.3.3.265.265 0 01-.3.3z"/><path data-name="パス 182" d="M4.7 6h-.3a.319.319 0 01-.3-.3.265.265 0 01.3-.3h.3a.3.3 0 110 .6z"/><path data-name="パス 183" d="M11.6 8.5H4.4a.319.319 0 01-.3-.3c0-.2.2-.2.3-.2h7.2a.319.319 0 01.3.3c0 .2-.1.2-.3.2z"/><path data-name="パス 184" d="M11.6 11.1H4.4a.319.319 0 01-.3-.3.265.265 0 01.3-.3h7.2a.319.319 0 01.3.3.265.265 0 01-.3.3z"/><path data-name="長方形 584" fill="none" d="M0 0h16v16H0z"/></svg>