<svg id="レイヤー_1" data-name="レイヤー 1" xmlns="http://www.w3.org/2000/svg" viewBox="0 0 25 25"><defs><style>.cls-1{fill:none;}.cls-2{fill:#1389b2;}</style></defs><title>account_on</title><g id="ON-アカウント画像"><rect id="長方形_391" data-name="長方形 391" class="cls-1" width="25" height="25"/><g id="グループ_78" data-name="グループ 78"><path id="パス_124" data-name="パス 124" class="cls-2" d="M23.74,23.45l-1.61-5.67v0a7,7,0,0,0-4.7-4.3L17,13.33l-.11,0a.45.45,0,0,0-.27.1,6.34,6.34,0,0,1-4.06,1.46h0a6.29,6.29,0,0,1-4.07-1.46.49.49,0,0,0-.26-.1l-.11,0-.48.13a7,7,0,0,0-4.7,4.3v0L1.26,23.45a.42.42,0,0,0,.29.51l.11,0H23.34a.41.41,0,0,0,.41-.42.21.21,0,0,0,0-.11Z"/><path id="パス_125" data-name="パス 125" class="cls-2" d="M12.5,13.62h0a5.12,5.12,0,0,0,4.08-2,7.19,7.19,0,0,0,1.48-4.46,6.75,6.75,0,0,0-1.35-4.31A5.23,5.23,0,0,0,12.51,1h0A5.25,5.25,0,0,0,8.29,2.85,6.7,6.7,0,0,0,6.93,7.16a7.22,7.22,0,0,0,1.48,4.47A5.14,5.14,0,0,0,12.5,13.62Z"/></g></g></svg>