<svg id="レイヤー_1" data-name="レイヤー 1" xmlns="http://www.w3.org/2000/svg" viewBox="0 0 25 25"><defs><style>.cls-1{opacity:0.6;}.cls-2{fill:none;}.cls-3{fill:#040000;}</style></defs><title>account_off</title><g id="OFF-アカウント画像-2" class="cls-1"><rect id="長方形_383" data-name="長方形 383" class="cls-2" width="25" height="25"/><g id="グループ_70" data-name="グループ 70"><path id="パス_104" data-name="パス 104" class="cls-3" d="M1.67,24a.43.43,0,0,1-.34-.16.42.42,0,0,1-.06-.36l1.6-5.67v0a7,7,0,0,1,4.71-4.3l.47-.13h.11a.39.39,0,0,1,.26.09,6.33,6.33,0,0,0,4.07,1.46h0a6.33,6.33,0,0,0,4.06-1.45.45.45,0,0,1,.27-.1l.11,0,.46.12a7,7,0,0,1,4.7,4.3v0l1.61,5.67a.42.42,0,0,1-.07.36.4.4,0,0,1-.33.17Zm21.12-.83L21.34,18a6.13,6.13,0,0,0-4.14-3.77l-.26-.07a7.08,7.08,0,0,1-4.42,1.51h0a7.13,7.13,0,0,1-4.43-1.51l-.27.07A6.17,6.17,0,0,0,3.66,18L2.21,23.14Z"/><path id="パス_105" data-name="パス 105" class="cls-3" d="M12.5,13.62a5.12,5.12,0,0,1-4.09-2A7.12,7.12,0,0,1,6.94,7.16,6.67,6.67,0,0,1,8.29,2.85,5.23,5.23,0,0,1,12.5,1h0a5.23,5.23,0,0,1,4.21,1.83,6.73,6.73,0,0,1,1.35,4.31,7.12,7.12,0,0,1-1.47,4.46,5.12,5.12,0,0,1-4.09,2Zm0-.78v-.05A4.29,4.29,0,0,0,16,11.11a6.42,6.42,0,0,0,1.3-3.95,5.93,5.93,0,0,0-1.17-3.79,4.36,4.36,0,0,0-3.56-1.52h0A4.39,4.39,0,0,0,8.93,3.37,5.92,5.92,0,0,0,7.77,7.16a6.29,6.29,0,0,0,1.3,3.95,4.28,4.28,0,0,0,3.43,1.68h0Z"/></g></g></svg>