<svg id="レイヤー_1" data-name="レイヤー 1" xmlns="http://www.w3.org/2000/svg" viewBox="0 0 25 25"><defs><style>.cls-1{fill:#1389b2;}</style></defs><title>my_
ticket_on</title><g id="ON-チケット画像"><g id="グループ_82" data-name="グループ 82"><path id="パス_137" data-name="パス 137" class="cls-1" d="M23.74,13.1a.42.42,0,0,0,.42-.41V8.32a.42.42,0,0,0-.42-.42H1A.42.42,0,0,0,.78,8a.42.42,0,0,0-.16.32v4.37A.42.42,0,0,0,1,13.1a1.54,1.54,0,0,1,0,3.07.41.41,0,0,0-.42.41V21a.43.43,0,0,0,.42.42h22.7a.42.42,0,0,0,.41-.42V16.58a.41.41,0,0,0-.41-.41,1.54,1.54,0,1,1,0-3.07ZM4.94,11H9.73a.37.37,0,0,1,0,.74H4.94a.38.38,0,0,1-.37-.37A.37.37,0,0,1,4.93,11Zm8.94,7.15H4.94a.37.37,0,0,1-.37-.36.38.38,0,0,1,.37-.37h8.93a.37.37,0,1,1,0,.73Zm0-2.14H4.94a.37.37,0,0,1-.37-.36.38.38,0,0,1,.37-.37h8.93a.37.37,0,1,1,0,.73Zm0-2.13H4.94a.37.37,0,1,1,0-.74h8.93a.37.37,0,1,1,0,.73Zm4.41,6.84h-.73V19.64a.37.37,0,0,1,.73,0Zm0-2.65a.37.37,0,0,1-.73,0V15.5a.37.37,0,1,1,.73,0Zm0-4.18a.37.37,0,0,1-.73,0V11.33a.37.37,0,1,1,.73,0Zm0-4.14a.37.37,0,1,1-.73,0V8.6h.73Z"/><path id="パス_138" data-name="パス 138" class="cls-1" d="M21.39,4a.4.4,0,0,0-.18-.26A.44.44,0,0,0,21,3.63H20.9L3.7,7.3H22.1Zm-5,2.59a.3.3,0,0,1-.2.13h-.06a.32.32,0,0,1-.31-.26l-.17-.95.62-.12.17.95a.3.3,0,0,1-.05.24Z"/></g></g></svg>