<svg id="レイヤー_1" data-name="レイヤー 1" xmlns="http://www.w3.org/2000/svg" viewBox="0 0 25 25"><defs><style>.cls-1{opacity:0.6;}.cls-2{fill:none;}.cls-3{fill:#040000;}</style></defs><title>my_
ticket_off</title><g id="OFF-チケット画像"><g id="OFF-チケット画像-2" class="cls-1"><rect id="長方形_382" data-name="長方形 382" class="cls-2" x="-0.11" width="25" height="25"/><g id="グループ_69" data-name="グループ 69"><path id="パス_97" data-name="パス 97" class="cls-3" d="M1,21.36A.41.41,0,0,1,.62,21h0V16.58A.41.41,0,0,1,1,16.17a1.54,1.54,0,0,0,1.53-1.54A1.52,1.52,0,0,0,1,13.1a.42.42,0,0,1-.42-.42V8.31A.42.42,0,0,1,.78,8,.37.37,0,0,1,1,7.88L20.9,3.64H21a.41.41,0,0,1,.22.07.39.39,0,0,1,.18.26l.84,3.94h1.51a.41.41,0,0,1,.42.41h0v4.37a.42.42,0,0,1-.42.42,1.54,1.54,0,0,0,0,3.07.41.41,0,0,1,.42.41V21a.41.41,0,0,1-.42.41H1Zm22.29-.82V17a2.37,2.37,0,0,1,0-4.66V8.73h-5v1a.41.41,0,0,1-.41.41h0a.41.41,0,0,1-.42-.41h0v-1h-16V12.3a2.37,2.37,0,0,1,0,4.66v3.58H17.5v-.9a.42.42,0,0,1,.42-.42h0a.41.41,0,0,1,.41.42h0v.9ZM21.38,7.9l-.71-3.36-4.3.92.16.83a.41.41,0,0,1-.32.49h-.08a.42.42,0,0,1-.41-.34l-.16-.82L4.89,7.9H16V7.83a.38.38,0,0,1,.06-.31.4.4,0,0,1,.26-.18h.08a.42.42,0,0,1,.41.33l.05.24Z"/><path id="パス_98" data-name="パス 98" class="cls-3" d="M17.92,18.47a.42.42,0,0,1-.42-.42V15.5a.41.41,0,0,1,.42-.41h0a.41.41,0,0,1,.41.41h0v2.55A.41.41,0,0,1,17.92,18.47Z"/><path id="パス_99" data-name="パス 99" class="cls-3" d="M17.92,14.29a.42.42,0,0,1-.42-.42h0V11.32a.41.41,0,0,1,.42-.41.41.41,0,0,1,.41.41v2.55a.41.41,0,0,1-.41.42Z"/><path id="パス_100" data-name="パス 100" class="cls-3" d="M4.94,13.91a.41.41,0,0,1-.42-.41h0a.42.42,0,0,1,.42-.42h8.93a.42.42,0,0,1,.42.42h0a.41.41,0,0,1-.42.41H4.94Z"/><path id="パス_101" data-name="パス 101" class="cls-3" d="M4.94,16.05a.42.42,0,0,1-.42-.42h0a.42.42,0,0,1,.42-.41h8.93a.42.42,0,0,1,.42.41h0a.42.42,0,0,1-.42.42H4.94Z"/><path id="パス_102" data-name="パス 102" class="cls-3" d="M4.94,18.19a.42.42,0,0,1-.42-.42h0a.41.41,0,0,1,.42-.41h8.93a.41.41,0,0,1,.42.41.42.42,0,0,1-.42.42H4.94Z"/><path id="パス_103" data-name="パス 103" class="cls-3" d="M4.94,11.77a.41.41,0,0,1-.42-.41h0a.42.42,0,0,1,.42-.42H9.73a.42.42,0,0,1,.41.42h0a.41.41,0,0,1-.41.41H4.94Z"/></g></g></g></svg>