<svg id="レイヤー_1" data-name="レイヤー 1" xmlns="http://www.w3.org/2000/svg" viewBox="0 0 25 25"><defs><style>.cls-1{fill:#1389b2;}</style></defs><title>route_on</title><g id="グループ_122" data-name="グループ 122"><g id="ON-経路検索画像"><g id="グループ_72" data-name="グループ 72"><path id="パス_106" data-name="パス 106" class="cls-1" d="M7.14,15.14a1.26,1.26,0,1,0,0,2.51,1.26,1.26,0,0,0,0-2.51Z"/><path id="パス_107" data-name="パス 107" class="cls-1" d="M17.76,15.14a1.26,1.26,0,1,0,0,2.51,1.26,1.26,0,0,0,0-2.51Z"/><path id="パス_108" data-name="パス 108" class="cls-1" d="M22,23.75l-3-3.24a3.11,3.11,0,0,0,2.17-.73c.95-.94.93-2.71.88-7,0-.46,0-.94,0-1.46V9.46c0-1,0-1.84,0-2.59a22.46,22.46,0,0,0-.09-3.38h0v0C21.39,1.53,18.2.55,12.46.55h0C6.7.55,3.51,1.53,3,3.46v0H3a23.9,23.9,0,0,0-.09,3.38c0,1.1,0,2.61,0,4.45,0,.52,0,1,0,1.46,0,4.29-.07,6.07.87,7a3.15,3.15,0,0,0,2.18.73l-3,3.25a.42.42,0,0,0-.08.44.43.43,0,0,0,.38.25H6.3a.42.42,0,0,0,.33-.16l1.42-1.9h8.8l1.42,1.9a.42.42,0,0,0,.33.16h3.08a.43.43,0,0,0,.38-.25A.44.44,0,0,0,22,23.75ZM16.26,2.42a.47.47,0,0,1,.47.47h0a.47.47,0,0,1-.94,0h0a.46.46,0,0,1,.46-.47Zm-5.93.1h4.23a.36.36,0,0,1,.37.36h0a.36.36,0,0,1-.37.36H10.33a.37.37,0,0,1,0-.73Zm-1.69-.1a.47.47,0,0,1,.47.47h0a.47.47,0,0,1-.47.47h0a.47.47,0,0,1,0-.94ZM5,12.8v-8a.37.37,0,0,1,.37-.36H19.49a.36.36,0,0,1,.36.36v8a.36.36,0,0,1-.36.37H5.41A.38.38,0,0,1,5,12.8Zm9.4,3h-4a.37.37,0,0,1-.37-.36.38.38,0,0,1,.37-.37h4a.37.37,0,0,1,.37.37.36.36,0,0,1-.36.36Zm.37,1.52a.37.37,0,0,1-.37.36h-4a.37.37,0,0,1-.37-.36.38.38,0,0,1,.37-.37h4a.36.36,0,0,1,.37.36ZM7.13,18.39a2,2,0,1,1,2-2,2,2,0,0,1-2,2Zm1.54,3.16.8-1.06H10.6l1.83,0h.05l1.81,0h1.14l.8,1.06Zm9.08-3.16a2,2,0,1,1,2-2h0a2,2,0,0,1-2,2Z"/><rect id="長方形_385" data-name="長方形 385" class="cls-1" x="5.78" y="5.18" width="6.31" height="7.26"/><rect id="長方形_386" data-name="長方形 386" class="cls-1" x="12.81" y="5.18" width="6.31" height="7.26"/></g></g></g></svg>