<svg id="レイヤー_1" data-name="レイヤー 1" xmlns="http://www.w3.org/2000/svg" viewBox="0 0 25 25"><defs><style>.cls-1{opacity:0.6;}.cls-2{fill:none;}.cls-3{fill:#040000;}</style></defs><title>route_off</title><g id="OFF-経路検索画像"><g id="OFF-経路検索画像-2" class="cls-1"><rect id="長方形_380" data-name="長方形 380" class="cls-2" x="-0.05" width="25px" height="25px"/><g id="グループ_65" data-name="グループ 65"><g id="グループ_63" data-name="グループ 63"><path id="パス_86" data-name="パス 86" class="cls-3" d="M7.14,18.44a2,2,0,1,1,2-2A2,2,0,0,1,7.14,18.44Zm0-3.25A1.21,1.21,0,1,0,8.35,16.4,1.21,1.21,0,0,0,7.14,15.19Z"/><path id="パス_87" data-name="パス 87" class="cls-3" d="M17.76,18.44a2,2,0,1,1,2-2A2.06,2.06,0,0,1,17.76,18.44Zm0-3.25a1.21,1.21,0,1,0,0,2.42,1.21,1.21,0,0,0,0-2.42Z"/><g id="グループ_62" data-name="グループ 62"><path id="パス_88" data-name="パス 88" class="cls-3" d="M10.45,15.85a.41.41,0,0,1-.41-.41h0a.41.41,0,0,1,.41-.42h4a.42.42,0,0,1,.42.42h0a.41.41,0,0,1-.42.41h-4Z"/><path id="パス_89" data-name="パス 89" class="cls-3" d="M10.45,17.73a.41.41,0,0,1-.41-.41h0a.41.41,0,0,1,.41-.42h4a.42.42,0,0,1,.42.42h0a.41.41,0,0,1-.42.41h-4Z"/></g></g><path id="パス_90" data-name="パス 90" class="cls-3" d="M5.41,13.22A.41.41,0,0,1,5,12.8H5v-8a.41.41,0,0,1,.41-.42H19.49a.41.41,0,0,1,.41.42h0v8a.41.41,0,0,1-.41.42H5.41Zm13.66-.83V5.23h-6.2v7.16Zm-7,0V5.23H5.83v7.16Z"/><g id="グループ_64" data-name="グループ 64"><path id="パス_91" data-name="パス 91" class="cls-3" d="M10.34,3.3a.42.42,0,1,1,0-.83h4.23a.42.42,0,0,1,0,.83Z"/><path id="パス_92" data-name="パス 92" class="cls-3" d="M8.64,3.41a.51.51,0,0,1-.51-.52.51.51,0,0,1,.51-.52h0a.52.52,0,0,1,.52.52h0A.52.52,0,0,1,8.64,3.41Z"/><path id="パス_93" data-name="パス 93" class="cls-3" d="M16.26,3.41a.52.52,0,1,1,0-1h0a.52.52,0,0,1,.52.52h0A.52.52,0,0,1,16.26,3.41Z"/></g><path id="パス_94" data-name="パス 94" class="cls-3" d="M18.6,24.45a.42.42,0,0,1-.33-.16l-1.42-1.9H8.05l-1.42,1.9a.42.42,0,0,1-.33.16H3.22a.43.43,0,0,1-.38-.25.42.42,0,0,1,.08-.44l3-3.25a3.15,3.15,0,0,1-2.18-.73c-.94-.94-.92-2.71-.87-7v0c0-.45,0-.93,0-1.43,0-1.81,0-3.27,0-4.45A23.71,23.71,0,0,1,3,3.5v0C3.51,1.53,6.7.55,12.45.55h0c5.74,0,8.93,1,9.48,2.91v0A22.32,22.32,0,0,1,22,6.87c0,1.18,0,2.64,0,4.45,0,.5,0,1,0,1.43v0c.05,4.29.07,6.07-.88,7a3.15,3.15,0,0,1-2.18.73l3,3.25a.38.38,0,0,1,.08.44.43.43,0,0,1-.38.25Zm2.13-.83-2.85-3.09H16.5l2.31,3.09Zm-14.64,0L8.4,20.53H7L4.17,23.62Zm10.14-2.07-.8-1.06H14.29l-1.81,0h0l-1.83,0H9.47l-.8,1.06Zm1.83-1.85h0c1.26,0,2.06-.09,2.49-.51.7-.69.68-2.6.63-6.4,0-.46,0-.95,0-1.47,0-1.81,0-3.28,0-4.46a26.14,26.14,0,0,0-.07-3.19c-.26-.86-1.73-2.29-8.68-2.29h0C5.49,1.38,4,2.81,3.76,3.67A24.27,24.27,0,0,0,3.7,6.86c0,1.18,0,2.65,0,4.46,0,.52,0,1,0,1.47,0,3.8-.06,5.71.63,6.4.43.42,1.24.5,2.49.51h.35l1.12,0c.68,0,1.45,0,2.33,0l1.84,0,1.85,0c.87,0,1.64,0,2.32,0h0l1.13,0Z"/></g></g></g></svg>