<svg id="レイヤー_1" data-name="レイヤー 1" xmlns="http://www.w3.org/2000/svg" viewBox="0 0 25 25"><defs><style>.cls-1{opacity:0.6;}.cls-2{fill:none;}.cls-3{fill:#040000;}</style></defs><title>store_off</title><g id="OFF-ストア画像"><g id="OFF-ストア画像-2" class="cls-1"><rect id="長方形_381" data-name="長方形 381" class="cls-2" width="25" height="25"/><g id="グループ_67" data-name="グループ 67"><path id="パス_95" data-name="パス 95" class="cls-3" d="M5.06,19.67a.41.41,0,0,1-.42-.41h0V13.67a.41.41,0,0,1,.41-.41h8.17a.41.41,0,0,1,.41.41h0v5.59a.41.41,0,0,1-.41.41H5.06Zm7.74-.83V14.09H5.47v4.75Z"/><path id="パス_96" data-name="パス 96" class="cls-3" d="M2.64,23.11a.43.43,0,0,1-.42-.42V11.87a3.39,3.39,0,0,1-1.82-3,.08.08,0,0,1,0-.07.38.38,0,0,1,0-.19L4.13,2.1a.42.42,0,0,1,.36-.21h16a.41.41,0,0,1,.36.21l3.66,6.55a.35.35,0,0,1,.05.2,3.37,3.37,0,0,1-1.83,3V22.69a.41.41,0,0,1-.41.42Zm19.3-.83V12.17a3.08,3.08,0,0,1-.68.07,3.32,3.32,0,0,1-2.92-1.74,3.32,3.32,0,0,1-5.84,0,3.31,3.31,0,0,1-5.84,0,3.31,3.31,0,0,1-2.92,1.75,4,4,0,0,1-.69-.07v10.1h12.2v-8.6a.41.41,0,0,1,.41-.42h4.28a.42.42,0,0,1,.42.42v8.6Zm-2.41,0v-.74H16.08v.74Zm0-1.57V14.09H16.08v6.59ZM18.79,9.26a2.52,2.52,0,0,0,2.47,2.15,2.46,2.46,0,0,0,.72-.1A2.43,2.43,0,0,0,22.7,11a2.58,2.58,0,0,0,1-1.69h-1a.41.41,0,0,1,0-.82h.76L20.29,2.72H4.74L1.51,8.44h.76a.41.41,0,0,1,.41.41.42.42,0,0,1-.4.42h-1A2.58,2.58,0,0,0,2.3,11a2.43,2.43,0,0,0,.72.36,2.46,2.46,0,0,0,.72.11A2.54,2.54,0,0,0,6.21,9.27H4a.41.41,0,0,1-.41-.42h0a.39.39,0,0,1,.24-.37H21.19a.4.4,0,0,1,.23.37.42.42,0,0,1-.41.42Zm-5.85,0a2.51,2.51,0,0,0,5,0Zm-5.84,0a2.51,2.51,0,0,0,5,0Z"/></g></g></g></svg>