<svg id="レイヤー_1" data-name="レイヤー 1" xmlns="http://www.w3.org/2000/svg" viewBox="0 0 25 25"><defs><style>.cls-1{fill:#1389b2;}.cls-2{fill:none;}</style></defs><title>store_on</title><g id="コンポーネント_49_1" data-name="コンポーネント 49 1"><g id="グループ_121" data-name="グループ 121"><rect id="長方形_388" data-name="長方形 388" class="cls-1" x="5.38" y="14.05" width="7.53" height="4.95"/><rect id="長方形_389" data-name="長方形 389" class="cls-1" x="15.99" y="14.05" width="3.65" height="6.81"/><rect id="長方形_390" data-name="長方形 390" class="cls-1" x="15.99" y="21.55" width="3.65" height="1.67"/><path id="パス_109" data-name="パス 109" class="cls-1" d="M2.42,9a.29.29,0,0,1-.29.29H.65a2.9,2.9,0,0,0,5.74,0v0H4a.3.3,0,0,1,0-.59H21a.3.3,0,1,1,0,.59H18.64v0a2.9,2.9,0,0,0,5.74,0H22.9a.29.29,0,1,1,0-.58h1.6L20.9,2.21A.41.41,0,0,0,20.54,2H4.5a.42.42,0,0,0-.36.21L.5,8.67H2.13A.28.28,0,0,1,2.42,9Z"/><path id="パス_110" data-name="パス 110" class="cls-1" d="M9.59,11.64A2.64,2.64,0,0,0,12.2,9.25H7A2.65,2.65,0,0,0,9.59,11.64Z"/><path id="パス_111" data-name="パス 111" class="cls-1" d="M15.43,11.64a2.65,2.65,0,0,0,2.62-2.39H12.82A2.64,2.64,0,0,0,15.43,11.64Z"/><path id="パス_112" data-name="パス 112" class="cls-1" d="M18.4,10.21a3.2,3.2,0,0,1-5.89.13,3.2,3.2,0,0,1-5.9-.13,3.4,3.4,0,0,1-3.09,2,3.22,3.22,0,0,1-1.37-.3l.08.05V22.81a.41.41,0,0,0,.42.41h12.7V21.3a.21.21,0,0,1,0-.18V13.74a.32.32,0,0,1,.31-.32H20a.32.32,0,0,1,.31.32h0v9.48h2.1a.41.41,0,0,0,.42-.41h0V12l.09-.05a3.26,3.26,0,0,1-1.38.3A3.38,3.38,0,0,1,18.4,10.21Zm-4.86,9.12a.31.31,0,0,1-.32.31H5.06a.31.31,0,0,1-.32-.31V13.74a.32.32,0,0,1,.32-.32h8.16a.32.32,0,0,1,.32.32Z"/></g><rect id="長方形_635" data-name="長方形 635" class="cls-2" width="25" height="25"/></g></svg>