<svg xmlns="http://www.w3.org/2000/svg" width="24" height="24"><path data-name="長方形 592" fill="none" d="M0 0h24v24H0z"/><g data-name="グループ 153"><path data-name="パス 208" d="M23.1 7.5V5.9a1.793 1.793 0 00-1.8-1.8H2.6A1.793 1.793 0 00.8 5.9v12.2a1.793 1.793 0 001.8 1.8h18.7a1.793 1.793 0 001.8-1.8V7.5zm-.8 2.2H1.7V7.9h20.6v1.8zM2.6 4.9h18.7a1 1 0 011 1v1.2H1.7V5.9a.987.987 0 01.9-1zm18.7 14.2H2.6a1 1 0 01-1-1v-7.6h20.6v7.6a.865.865 0 01-.9 1z"/><path data-name="パス 209" d="M10.4 13.4H3.2a.4.4 0 100 .8h7.2a.4.4 0 100-.8z"/><path data-name="パス 210" d="M10.4 15.5H3.2a.4.4 0 100 .8h7.2a.4.4 0 100-.8z"/><path data-name="パス 211" d="M20.8 13.2h-2.5a.43.43 0 00-.4.4v2.5a.43.43 0 00.4.4h2.5a.43.43 0 00.4-.4v-2.5a.43.43 0 00-.4-.4zm-.4 2.5h-1.7V14h1.7z"/></g></svg>