<svg xmlns="http://www.w3.org/2000/svg" width="24" height="24"><path data-name="長方形 590" fill="none" d="M0 0h24v24H0z"/><g data-name="グループ 149"><path data-name="パス 202" d="M21 20.8l-1.3-4.5a5.231 5.231 0 00-3.8-3.4l-.4-.1h-.1c-.1 0-.2 0-.2.1a4.717 4.717 0 01-3.2 1.2 5.163 5.163 0 01-3.3-1.2c-.1 0-.1-.1-.2-.1h-.1l-.4.1a6.109 6.109 0 00-3.8 3.4L3 20.8a.354.354 0 00.4.4h17.3a.367.367 0 00.3-.1v-.3z"/><path data-name="パス 203" d="M12 12.9a4.22 4.22 0 003.3-1.6 5.584 5.584 0 001.2-3.6 5.137 5.137 0 00-1.1-3.4A4.061 4.061 0 0012 2.8a4.192 4.192 0 00-3.4 1.5 5.137 5.137 0 00-1.1 3.4 5.584 5.584 0 001.2 3.6 4.22 4.22 0 003.3 1.6z"/></g></svg>