<svg xmlns="http://www.w3.org/2000/svg" width="32" height="32"><path data-name="長方形 439" fill="none" d="M0 0h32v32H0z"/><path data-name="パス 177" d="M28.023 5.215a2.86 2.86 0 012.914 2.795v15.981a2.859 2.859 0 01-2.914 2.794H12.289a4.02 4.02 0 01-2.995-1.319l-8.038-8.968a.735.735 0 010-1l8.037-8.967a4.017 4.017 0 012.994-1.32h15.735m0-1.063H12.288a5.085 5.085 0 00-3.785 1.674L.466 14.789a1.8 1.8 0 000 2.414l8.037 8.968a5.084 5.084 0 003.786 1.673h15.734A3.919 3.919 0 0032 23.991V8.01a3.919 3.919 0 00-3.977-3.858z" fill="#fff"/><path data-name="パス 178" d="M20.461 16l3.422-3.424a.719.719 0 00-1.017-1.016l-3.421 3.423-3.422-3.423a.718.718 0 00-1.016 1.016L18.429 16l-3.422 3.424a.718.718 0 101.016 1.016l3.422-3.423 3.421 3.423a.719.719 0 001.017-1.016z" fill="#fff"/></svg>