<svg xmlns="http://www.w3.org/2000/svg" width="33" height="32"><path data-name="長方形 439" fill="none" d="M.5 0h32v32H.5z"/><path data-name="前面オブジェクトで型抜き 3" d="M28.523 27.852H12.789a5.084 5.084 0 01-3.786-1.673L.966 17.211a1.8 1.8 0 01-.465-1.207 1.8 1.8 0 01.465-1.207l8.037-8.968a5.083 5.083 0 013.785-1.674h15.735A3.925 3.925 0 0132.5 8.013v15.981a3.924 3.924 0 01-3.977 3.858zm-8.578-10.831h0l3.42 3.422a.715.715 0 00.509.211.708.708 0 00.508-.211.711.711 0 00.211-.507.714.714 0 00-.211-.509l-3.422-3.424 3.422-3.424a.714.714 0 00.211-.509.711.711 0 00-.211-.507.715.715 0 00-.508-.211.716.716 0 00-.509.211l-3.421 3.424-3.422-3.424a.712.712 0 00-.508-.211.715.715 0 00-.509.211.712.712 0 00-.211.507.715.715 0 00.211.509l3.422 3.424-3.422 3.424a.716.716 0 00-.211.509.713.713 0 00.211.507.711.711 0 00.508.211.712.712 0 00.509-.211l3.421-3.422z" fill="#fff" stroke="rgba(0,0,0,0)" stroke-miterlimit="10"/></svg>