<svg xmlns="http://www.w3.org/2000/svg" width="20" height="20"><g data-name="グループ 186"><path data-name="長方形 592" fill="none" d="M0 0h20v20H0z"/><path data-name="パス 185" d="M8.128 6.531V4.624a3.872 3.872 0 00-3.215-.741L4 5.574a4.4 4.4 0 014.126.957z" fill="#0097c3"/><path data-name="パス 186" d="M19.338 10.645v-.006a4.126 4.126 0 00-.547-1.052l-1.363-2.622a3.862 3.862 0 00-5.7.519 6.409 6.409 0 00-1.579-.328 7.325 7.325 0 00-1.817.389 3.863 3.863 0 00-5.748-.58L1.211 9.586a4.126 4.126 0 00-.547 1.052v.006a4.186 4.186 0 107.957 2.6l.028.195a3.185 3.185 0 001.493.561 2.674 2.674 0 001.326-.5 4.186 4.186 0 007.87-2.855zM4.629 14.967a3.029 3.029 0 113.029-3.029 3.029 3.029 0 01-3.029 3.029zM10.054 13a.808.808 0 11.807-.808.808.808 0 01-.807.808zm5.317 1.965a3.029 3.029 0 113.029-3.027 3.029 3.029 0 01-3.029 3.029z" fill="#0097c3"/><path data-name="パス 187" d="M16 5.574l-.907-1.691a3.872 3.872 0 00-3.215.741v1.907A4.4 4.4 0 0116 5.574z" fill="#0097c3"/></g></svg>