<?xml version="1.0" encoding="utf-8"?>
<!-- Generator: Adobe Illustrator 24.0.1, SVG Export Plug-In . SVG Version: 6.00 Build 0)  -->
<svg version="1.1" id="レイヤー_1" xmlns="http://www.w3.org/2000/svg" xmlns:xlink="http://www.w3.org/1999/xlink" x="0px"
	 y="0px" viewBox="0 0 22 20.3" style="enable-background:new 0 0 22 20.3;" xml:space="preserve">
<style type="text/css">
	.st0{fill:#FFFFFF;}
</style>
<g id="グループ_282" transform="translate(-599.606 -1031.971)">
	<path id="パス_277" class="st0" d="M609,1047.8c-1.2,0-2.2,1-2.2,2.2c0,1.2,1,2.2,2.2,2.2c1.2,0,2.2-1,2.2-2.2
		C611.2,1048.8,610.2,1047.8,609,1047.8C609,1047.8,609,1047.8,609,1047.8z M609,1050.9c-0.5,0-0.9-0.4-0.9-0.9
		c0-0.5,0.4-0.9,0.9-0.9s0.9,0.4,0.9,0.9c0,0,0,0,0,0C609.8,1050.5,609.4,1050.9,609,1050.9z"/>
	<path id="パス_278" class="st0" d="M617.3,1047.8c-1.2,0-2.2,1-2.2,2.2c0,1.2,1,2.2,2.2,2.2c1.2,0,2.2-1,2.2-2.2
		C619.5,1048.8,618.5,1047.8,617.3,1047.8C617.3,1047.8,617.3,1047.8,617.3,1047.8z M617.3,1050.9c-0.5,0-0.9-0.4-0.9-0.9
		c0-0.5,0.4-0.9,0.9-0.9s0.9,0.4,0.9,0.9c0,0,0,0,0,0C618.1,1050.5,617.7,1050.9,617.3,1050.9z"/>
	<path id="パス_279" class="st0" d="M621.5,1037.6c-0.1-0.2-0.3-0.3-0.5-0.3h-12.6c-0.4,0-0.7,0.3-0.7,0.7s0.3,0.7,0.7,0.7h11.7
		l-1.1,4.6l0,0l-0.3,1.4c-0.1,0.5-0.5,0.8-1,0.8h-9.5l-2-8.2l0,0l-0.9-3.5c-0.3-1.1-1.2-1.8-2.3-1.8h-2.6c-0.4,0-0.7,0.3-0.7,0.7
		c0,0.4,0.3,0.7,0.7,0.7c0,0,0,0,0.1,0h2.6c0.5,0,0.9,0.3,1,0.8l0.7,2.8l0,0l2.3,9.4c0.1,0.3,0.3,0.5,0.7,0.5h10
		c1.1,0,2.1-0.8,2.3-1.8l0.3-1.4l0,0l0.3-1.4l0,0l1-4.1C621.7,1038,621.6,1037.8,621.5,1037.6z"/>
</g>
</svg>
