<svg xmlns="http://www.w3.org/2000/svg" width="20" height="20"><path data-name="長方形 586" fill="none" d="M0 0h20v20H0z"/><path data-name="長方形 587" fill="none" d="M0 0h20v20H0z"/><path data-name="パス 179" d="M19.6 19.1l-2.8-5.4c-.1-.1-.2-.2-.3-.2h-3l1.8-2.4a6.394 6.394 0 001.3-4A6.659 6.659 0 0010 .5a6.659 6.659 0 00-6.6 6.6 7.321 7.321 0 001.3 4l1.8 2.4H.7c-.1 0-.2.1-.3.2a.188.188 0 000 .3l2.8 5.4c.1.1.2.2.3.2h15.7c.1 0 .2-.1.3-.2a.367.367 0 00.1-.3zM10 4.1a3.1 3.1 0 11-3.1 3.1A3.116 3.116 0 0110 4.1zM3.7 18.9l-2.4-4.7H7l2.7 3.6a.5.5 0 00.6 0l2.7-3.6h3.3l2.4 4.7h-15z" fill="#0097c3"/></svg>